<svg width="414" height="238" viewBox="0 0 414 238" fill="none" xmlns="http://www.w3.org/2000/svg">
<path d="M0 74V0.839996H11.16V74H0ZM14.88 74V0.839996H18.6V74H14.88ZM22.32 74V0.839996H33.48V74H22.32ZM37.2 74V0.839996H40.92V74H37.2ZM52.08 74V0.839996H55.8V74H52.08ZM29.76 114.052C26.4533 114.052 23.932 112.771 22.196 110.208C20.3773 107.645 19.468 104.008 19.468 99.296C19.468 94.7493 20.3773 91.1533 22.196 88.508C24.0147 85.9453 26.536 84.664 29.76 84.664C32.984 84.664 35.5053 85.9453 37.324 88.508C39.1427 91.1533 40.052 94.7493 40.052 99.296C40.052 104.008 39.1427 107.645 37.324 110.208C35.588 112.771 33.0667 114.052 29.76 114.052ZM29.76 111.2C31.992 111.2 33.6867 110.208 34.844 108.224C36.084 106.157 36.704 103.181 36.704 99.296C36.704 95.6587 36.084 92.7653 34.844 90.616C33.604 88.5493 31.9093 87.516 29.76 87.516C27.6107 87.516 25.916 88.5493 24.676 90.616C23.436 92.7653 22.816 95.6587 22.816 99.296C22.816 103.181 23.3947 106.157 24.552 108.224C25.792 110.208 27.528 111.2 29.76 111.2ZM59.5781 74V0.839996H70.7381V74H59.5781ZM74.4581 74V0.839996H85.6181V74H74.4581ZM89.3381 74V0.839996H93.0581V74H89.3381ZM96.7781 74V0.839996H100.498V74H96.7781ZM111.658 74V0.839996H115.378V74H111.658ZM79.6661 84.788H82.2701L89.3381 98.924L96.5301 84.788H99.0101V113.556H95.9101V91.856L89.7101 103.512H88.4701L82.6421 91.98V113.556H79.6661V84.788ZM119.156 74V0.839996H122.876V74H119.156ZM126.596 74V0.839996H137.756V74H126.596ZM141.476 74V0.839996H145.196V74H141.476ZM156.356 74V0.839996H167.516V74H156.356ZM171.236 74V0.839996H174.956V74H171.236ZM141.104 110.828H146.808V87.516H141.476V84.788H155.736V87.516H150.032V110.828H155.984V113.556H141.104V110.828ZM178.734 74V0.839996H182.454V74H178.734ZM186.174 74V0.839996H189.894V74H186.174ZM193.614 74V0.839996H204.774V74H193.614ZM208.494 74V0.839996H219.654V74H208.494ZM230.814 74V0.839996H234.534V74H230.814ZM206.51 87.64H198.45V84.788H218.29V87.64H209.858V113.556H206.51V87.64ZM238.312 74V0.839996H242.033V74H238.312ZM245.753 74V0.839996H249.473V74H245.753ZM253.193 74V0.839996H264.353V74H253.193ZM268.073 74V0.839996H279.233V74H268.073ZM290.393 74V0.839996H294.113V74H290.393ZM266.089 87.64H258.029V84.788H277.869V87.64H269.437V113.556H266.089V87.64ZM297.891 74V0.839996H309.051V74H297.891ZM312.771 74V0.839996H316.491V74H312.771ZM320.211 74V0.839996H331.371V74H320.211ZM342.531 74V0.839996H346.251V74H342.531ZM349.971 74V0.839996H353.691V74H349.971ZM318.847 84.788H336.455V87.64H321.823V97.064H333.975V100.04H321.823V110.704H336.331V113.556H318.847V84.788ZM357.469 74V0.839996H361.189V74H357.469ZM364.909 74V0.839996H368.629V74H364.909ZM372.349 74V0.839996H383.509V74H372.349ZM394.669 74V0.839996H398.389V74H394.669ZM402.109 74V0.839996H413.269V74H402.109ZM378.177 84.788H384.873C387.27 84.788 389.13 85.1187 390.453 85.78C391.858 86.4413 393.057 87.4333 394.049 88.756C395.95 91.236 396.901 94.7493 396.901 99.296C396.735 104.008 395.661 107.563 393.677 109.96C391.693 112.44 388.593 113.639 384.377 113.556H378.177V84.788ZM384.129 111.076C390.494 111.076 393.677 107.232 393.677 99.544C393.677 95.6587 392.974 92.6827 391.569 90.616C390.081 88.5493 387.766 87.516 384.625 87.516H381.277V111.076H384.129ZM0 198V124.84H11.16V198H0ZM14.88 198V124.84H26.04V198H14.88ZM29.76 198V124.84H33.48V198H29.76ZM37.2 198V124.84H40.92V198H37.2ZM52.08 198V124.84H55.8V198H52.08ZM20.088 208.788H22.692L29.76 222.924L36.952 208.788H39.432V237.556H36.332V215.856L30.132 227.512H28.892L23.064 215.98V237.556H20.088V208.788ZM89.3381 198V124.84H100.498V198H89.3381ZM104.218 198V124.84H107.938V198H104.218ZM111.658 198V124.84H122.818V198H111.658ZM133.978 198V124.84H137.698V198H133.978ZM141.418 198V124.84H145.138V198H141.418ZM110.294 208.788H127.902V211.64H113.27V221.064H125.422V224.04H113.27V234.704H127.778V237.556H110.294V208.788ZM178.676 198V124.84H182.396V198H178.676ZM186.116 198V124.84H189.836V198H186.116ZM193.556 198V124.84H204.716V198H193.556ZM215.876 198V124.84H219.596V198H215.876ZM223.316 198V124.84H234.476V198H223.316ZM199.384 208.788H206.08C208.478 208.788 210.338 209.119 211.66 209.78C213.066 210.441 214.264 211.433 215.256 212.756C217.158 215.236 218.108 218.749 218.108 223.296C217.943 228.008 216.868 231.563 214.884 233.96C212.9 236.44 209.8 237.639 205.584 237.556H199.384V208.788ZM205.336 235.076C211.702 235.076 214.884 231.232 214.884 223.544C214.884 219.659 214.182 216.683 212.776 214.616C211.288 212.549 208.974 211.516 205.832 211.516H202.484V235.076H205.336ZM268.014 198V124.84H271.734V198H268.014ZM275.454 198V124.84H286.614V198H275.454ZM290.334 198V124.84H294.054V198H290.334ZM305.214 198V124.84H316.374V198H305.214ZM320.094 198V124.84H323.814V198H320.094ZM289.962 234.828H295.666V211.516H290.334V208.788H304.594V211.516H298.89V234.828H304.842V237.556H289.962V234.828ZM357.353 198V124.84H368.513V198H357.353ZM372.233 198V124.84H375.953V198H372.233ZM379.673 198V124.84H383.393V198H379.673ZM394.553 198V124.84H398.273V198H394.553ZM401.993 198V124.84H413.153V198H401.993ZM391.701 229.124H382.401L379.549 237.556H376.325L386.865 208.292H387.237L397.901 237.556H394.553L391.701 229.124ZM390.833 226.644L387.113 215.732L383.269 226.644H390.833Z" fill="url(#paint0_linear_83_42)"/>
<defs>
<linearGradient id="paint0_linear_83_42" x1="466" y1="-2.03043e-07" x2="467.813" y2="247.987" gradientUnits="userSpaceOnUse">
<stop stop-color="#339CFF"/>
<stop offset="0.505122" stop-color="#410166"/>
<stop offset="1" stop-color="#680166"/>
</linearGradient>
</defs>
</svg>
